<?xml version="1.0" encoding="utf-8"?>
<svg id="master-artboard" viewBox="0 0 120 120" version="1.1" xmlns="http://www.w3.org/2000/svg" x="0px" y="0px" width="120px" height="120px" style="enable-background:new 0 0 1400 980;"><rect id="ee-background" x="0" y="0" width="120" height="120" style="fill: white; fill-opacity: 0; pointer-events: none;"/>


















<path class="st0" d="M763,822.4h-20.4l-10.1-26.5c-0.4-1.1-1.4-1.8-2.6-1.8h-11.9c-0.8-3.4-3.9-5.9-7.5-5.9h-14.4&#10;&#9;c-3.6,0-6.7,2.5-7.5,5.9h-12.8c-1.2,0-2.2,0.7-2.6,1.8l-10.1,26.5h-20.4c-0.9,0-1.7,0.4-2.2,1.1c-0.5,0.7-0.7,1.6-0.5,2.4l18.8,69.6&#10;&#9;c0.3,1.2,1.4,2.1,2.7,2.1h82.6c1.3,0,2.4-0.8,2.7-2.1l18.8-69.6c0.2-0.8,0-1.7-0.5-2.4C764.7,822.8,763.9,822.4,763,822.4z&#10;&#9; M694,795.9c0-1.2,1-2.2,2.2-2.2h14.4c1.2,0,2.2,1,2.2,2.2v2c0,1.2-1,2.2-2.2,2.2h-14.4c-1.2,0-2.2-1-2.2-2.2V795.9z M677.7,799.6&#10;&#9;h10.9c0.8,3.4,3.9,5.9,7.5,5.9h14.4c3.6,0,6.7-2.5,7.5-5.9h10l8.6,22.7h-67.6L677.7,799.6z M748.1,869.6h-24.3v-18H753L748.1,869.6z&#10;&#9; M718.2,869.6h-30.7v-18h30.7V869.6z M718.2,875.2v16.7h-30.7v-16.7H718.2z M652.8,851.6H682v18h-24.3L652.8,851.6z M687.6,846&#10;&#9;v-18.1h30.7V846H687.6z M665.1,827.9H682V846h-30.7l-4.9-18.1H665.1z M659.2,875.2H682v16.7h-18.3L659.2,875.2z M742.1,891.9h-18.3&#10;&#9;v-16.7h22.8L742.1,891.9z M754.5,846h-30.7v-18.1h16.9h18.7L754.5,846z" style="fill: rgb(123, 123, 123);" transform="matrix(0.556645393371582, 0, 0, 0.548446536064148, -331.52133178710943, -400.18090820312494)"/>


</svg>