<?xml version="1.0" encoding="utf-8"?>
<svg id="master-artboard" viewBox="0 0 120 120" version="1.1" xmlns="http://www.w3.org/2000/svg" x="0px" y="0px" width="120px" height="120px" enable-background="new 0 0 1400 980"><rect id="ee-background" x="0" y="0" width="120" height="120" style="fill: white; fill-opacity: 0; pointer-events: none;"/>
<g id="XMLID_2_" transform="matrix(0.3302275538444519, 0, 0, 0.3302275538444519, -14.114111817526691, -60.09619161354547)">
		<path id="XMLID_283_" fill="#282F39" d="M324.5,480.2H132.4c-2.9,0-5.3-2.4-5.3-5.3V249c0-2.9,2.4-5.3,5.3-5.3h192.1&#10;&#9;&#9;&#9;c2.9,0,5.3,2.4,5.3,5.3v226C329.8,477.9,327.4,480.2,324.5,480.2z M137.7,469.7h181.6V254.3H137.7V469.7z"/>
	</g><path d="M 223.199997 249 H 233.699997 V 436.399994 H 223.199997 V 249 Z" id="XMLID_282_" fill="#282F39" transform="matrix(0.3302275538444519, 0, 0, 0.3302275538444519, -14.114111817526691, -60.09619161354547)"/><path d="M 132.399994 431.100006 H 324.5 V 441.600006 H 132.399994 V 431.100006 Z" id="XMLID_281_" fill="#282F39" transform="matrix(0.3302275538444519, 0, 0, 0.3302275538444519, -14.114111817526691, -60.09619161354547)"/><g id="XMLID_6_" transform="matrix(0.3302275538444519, 0, 0, 0.3302275538444519, -14.114111817526691, -60.09619161354547)">
			<path d="M 200.399994 330.5 H 210.899994 V 348.5 H 200.399994 V 330.5 Z" id="XMLID_280_" fill="#282F39"/>
		</g><path d="M 245.899994 330.5 H 256.399994 V 348.5 H 245.899994 V 330.5 Z" id="XMLID_279_" fill="#282F39" transform="matrix(0.3302275538444519, 0, 0, 0.3302275538444519, -14.114111817526691, -60.09619161354547)"/><path d="M 219.399994 449.899994 H 237.399994 V 460.399994 H 219.399994 V 449.899994 Z" id="XMLID_278_" fill="#282F39" transform="matrix(0.3302275538444519, 0, 0, 0.3302275538444519, -14.114111817526691, -60.09619161354547)"/>







</svg>