<?xml version="1.0" encoding="utf-8"?>
<svg id="master-artboard" viewBox="0 0 120 120" version="1.1" xmlns="http://www.w3.org/2000/svg" x="0px" y="0px" width="120px" height="120px" style="enable-background:new 0 0 1400 980;"><rect id="ee-background" x="0" y="0" width="120" height="120" style="fill: white; fill-opacity: 0; pointer-events: none;"/>






<g transform="matrix(0.48937323689460754, 0, 0, 0.4819275736808777, 4.684544086456299, -117.39469909667969)">
	<path class="st0" d="M172.4,348.7h-16.5L123.1,318c0.8-1.5,1.3-3.2,1.3-5.1c0-5.9-4.8-10.7-10.7-10.7s-10.7,4.8-10.7,10.7&#10;&#9;&#9;c0,1.8,0.5,3.6,1.3,5.1l-32.7,30.7H55.1c-1.5,0-2.7,1.2-2.7,2.7V424c0,1.5,1.2,2.7,2.7,2.7h117.2c1.5,0,2.7-1.2,2.7-2.7v-72.6&#10;&#9;&#9;C175.1,349.9,173.9,348.7,172.4,348.7z M113.7,307.7c2.9,0,5.2,2.3,5.2,5.2c0,2.9-2.3,5.2-5.2,5.2s-5.2-2.3-5.2-5.2&#10;&#9;&#9;C108.5,310,110.9,307.7,113.7,307.7z M108.1,321.9c1.6,1,3.6,1.6,5.6,1.6c2.1,0,4-0.6,5.6-1.6l28.5,26.7H79.6L108.1,321.9z&#10;&#9;&#9; M169.6,421.3H57.9v-67.2h111.8V421.3z" style="fill: rgb(96, 96, 96);"/>
	<path class="st0" d="M84.2,382c1.5,0,2.7-0.3,3.6-0.9c0.9-0.6,1.5-1.4,1.9-2.5c0.3-0.8,0.4-1.9,0.4-3.4v-11.2h-3.6v11.4&#10;&#9;&#9;c0,1.4-0.2,2.4-0.5,2.8c-0.3,0.5-0.9,0.7-1.7,0.7c-0.8,0-1.4-0.3-1.8-1c-0.3-0.4-0.4-1.1-0.4-2.1l-3.4,0.4c0,1.9,0.5,3.3,1.4,4.3&#10;&#9;&#9;C81.1,381.5,82.5,382,84.2,382z" style="fill: rgb(96, 96, 96);"/>
	<path class="st0" d="M106.6,382c2.6,0,4.7-0.8,6.2-2.4c1.5-1.6,2.3-3.8,2.3-6.7c0-2.9-0.8-5.1-2.3-6.7c-1.6-1.6-3.6-2.4-6.2-2.4&#10;&#9;&#9;c-1.4,0-2.7,0.2-3.8,0.7c-0.8,0.3-1.6,0.9-2.3,1.6c-0.7,0.7-1.2,1.5-1.6,2.4c-0.5,1.2-0.8,2.7-0.8,4.5c0,2.8,0.8,5,2.3,6.6&#10;&#9;&#9;C101.9,381.2,104,382,106.6,382z M103.1,368.3c0.9-1,2.1-1.5,3.5-1.5s2.6,0.5,3.5,1.5c0.9,1,1.3,2.5,1.3,4.5c0,2-0.5,3.6-1.4,4.6&#10;&#9;&#9;c-0.9,1-2.1,1.5-3.5,1.5s-2.6-0.5-3.5-1.5c-0.9-1-1.4-2.5-1.4-4.5C101.7,370.9,102.2,369.4,103.1,368.3z" style="fill: rgb(96, 96, 96);"/>
	<path d="M 122.800003 364.100006 H 126.400003 V 381.700006 H 122.800003 V 364.100006 Z" class="st0" style="fill: rgb(96, 96, 96);"/>
	<path d="M 138 370.20001220703125 L 145.10000610351562 381.70001220703125 L 148.6999969482422 381.70001220703125 L 148.6999969482422 364.1000061035156 L 145.39999389648438 364.1000061035156 L 145.39999389648438 375.8999938964844 L 138.1999969482422 364.1000061035156 L 134.6999969482422 364.1000061035156 L 134.6999969482422 381.70001220703125 L 138 381.70001220703125 Z" class="st0" style="fill: rgb(96, 96, 96);"/>
	<path class="st0" d="M98,409.5c0.5,0.6,1.2,1.1,2.1,1.5c0.9,0.4,2.1,0.6,3.8,0.6c1.4,0,2.5-0.2,3.4-0.5c0.9-0.4,1.6-0.8,2.1-1.4&#10;&#9;&#9;c0.5-0.6,0.9-1.3,1.1-2.2c0.2-0.9,0.3-2.4,0.3-4.5v-9.3h-3.6v9.8c0,1.4-0.1,2.4-0.2,3c-0.1,0.6-0.4,1.1-0.9,1.5&#10;&#9;&#9;c-0.5,0.4-1.3,0.6-2.3,0.6c-1,0-1.8-0.2-2.4-0.7c-0.6-0.4-0.9-1-1.1-1.7c-0.1-0.4-0.1-1.4-0.1-2.9v-9.6h-3.6v9.4&#10;&#9;&#9;c0,2,0.1,3.5,0.3,4.5C97.2,408.2,97.5,408.9,98,409.5z" style="fill: rgb(96, 96, 96);"/>
	<path class="st0" d="M128.5,407.9c-0.6,0.5-1.4,0.7-2.6,0.7c-1.1,0-1.9-0.3-2.6-0.8c-0.6-0.5-1.1-1.4-1.3-2.6l-3.5,0.3&#10;&#9;&#9;c0.2,2,0.9,3.5,2.1,4.5c1.2,1,2.9,1.5,5.1,1.5c1.5,0,2.8-0.2,3.8-0.6c1-0.4,1.8-1.1,2.4-2c0.6-0.9,0.8-1.8,0.8-2.8&#10;&#9;&#9;c0-1.1-0.2-2.1-0.7-2.8c-0.5-0.8-1.1-1.4-1.9-1.8c-0.8-0.4-2.1-0.9-3.8-1.3c-1.7-0.4-2.8-0.8-3.3-1.2c-0.4-0.3-0.5-0.7-0.5-1.1&#10;&#9;&#9;c0-0.5,0.2-0.8,0.6-1.1c0.6-0.4,1.4-0.6,2.4-0.6c1,0,1.8,0.2,2.3,0.6c0.5,0.4,0.8,1,1,2l3.6-0.2c-0.1-1.6-0.6-2.9-1.8-3.9&#10;&#9;&#9;c-1.1-1-2.8-1.5-5-1.5c-1.4,0-2.5,0.2-3.5,0.6c-1,0.4-1.7,1-2.2,1.8c-0.5,0.8-0.8,1.6-0.8,2.5c0,1.4,0.5,2.6,1.6,3.5&#10;&#9;&#9;c0.8,0.7,2.1,1.3,4,1.7c1.5,0.4,2.4,0.6,2.9,0.8c0.6,0.2,1,0.5,1.3,0.8c0.2,0.3,0.4,0.6,0.4,1.1C129.3,406.8,129,407.4,128.5,407.9&#10;&#9;&#9;z" style="fill: rgb(96, 96, 96);"/>
</g>














</svg>