<?xml version="1.0" encoding="utf-8"?>
<svg id="master-artboard" viewBox="0 0 120 120" version="1.1" xmlns="http://www.w3.org/2000/svg" x="0px" y="0px" width="120px" height="120px" enable-background="new 0 0 1400 980"><rect id="ee-background" x="0" y="0" width="120" height="120" style="fill: white; fill-opacity: 0; pointer-events: none;"/>
<path fill="#FFFFFF" d="M785.7,749.6h-8.8v55.9h27.6V502.3H474.6v303.2h27.6v-55.9h-8.8c-1.8,0-3.2-1.5-3.2-3.2v-37.1&#10;&#9;&#9;&#9;c0-1.8,1.5-3.2,3.2-3.2h8.8V604.1h-8.8c-1.8,0-3.2-1.5-3.2-3.2v-37.1c0-1.8,1.5-3.2,3.2-3.2h8.8v-41.4c0-0.1,0-0.2,0-0.4&#10;&#9;&#9;&#9;c0,0,0-0.1,0-0.1c0-0.1,0-0.2,0-0.3c0,0,0-0.1,0-0.1c0-0.1,0-0.2,0.1-0.3c0,0,0-0.1,0-0.1c0-0.1,0.1-0.2,0.1-0.3c0,0,0,0,0-0.1&#10;&#9;&#9;&#9;c0.1-0.1,0.1-0.2,0.2-0.3c0,0,0,0,0,0c0.1-0.1,0.1-0.2,0.2-0.3c0,0,0.1-0.1,0.1-0.1c0.1-0.1,0.1-0.1,0.2-0.2c0,0,0.1-0.1,0.1-0.1&#10;&#9;&#9;&#9;c0.1-0.1,0.1-0.1,0.2-0.2c0,0,0,0,0.1,0c0,0,0,0,0,0c0.2-0.1,0.4-0.3,0.6-0.3c0,0,0,0,0.1,0c0.1,0,0.2-0.1,0.3-0.1&#10;&#9;&#9;&#9;c0,0,0.1,0,0.1,0c0.1,0,0.2,0,0.3-0.1c0,0,0.1,0,0.1,0c0.1,0,0.2,0,0.3,0c0,0,0.1,0,0.1,0c0,0,0,0,0,0h268.3c0,0,0,0,0.1,0&#10;&#9;&#9;&#9;c0,0,0.1,0,0.1,0c0.1,0,0.2,0,0.2,0c0,0,0.1,0,0.1,0c0.1,0,0.2,0,0.2,0.1c0,0,0.1,0,0.1,0c0.1,0,0.2,0.1,0.3,0.1c0,0,0,0,0.1,0&#10;&#9;&#9;&#9;c0.1,0,0.2,0.1,0.3,0.2c0,0,0,0,0,0c0.1,0.1,0.2,0.1,0.3,0.2c0,0,0,0,0,0c0,0,0,0,0.1,0c0.1,0,0.1,0.1,0.2,0.2&#10;&#9;&#9;&#9;c0,0,0.1,0.1,0.1,0.1c0.1,0.1,0.1,0.1,0.2,0.2c0,0,0.1,0.1,0.1,0.1c0.2,0.2,0.3,0.4,0.4,0.6c0,0,0,0.1,0,0.1&#10;&#9;&#9;&#9;c0,0.1,0.1,0.2,0.1,0.2c0,0,0,0.1,0,0.1c0,0.1,0.1,0.2,0.1,0.2c0,0,0,0.1,0,0.1c0,0.1,0,0.2,0,0.3c0,0,0,0.1,0,0.1&#10;&#9;&#9;&#9;c0,0.1,0,0.2,0,0.4v41.4h8.8c1.8,0,3.2,1.5,3.2,3.2v37.1c0,1.8-1.5,3.2-3.2,3.2h-8.8V706h8.8c1.8,0,3.2,1.5,3.2,3.2v37.1&#10;&#9;&#9;&#9;C789,748.1,787.5,749.6,785.7,749.6z" transform="matrix(0.2334403544664383, 0, 0, 0.18987342715263367, -87.24439239501953, -63.15590286254883)"/><path fill="#424342" d="M656.8,557.5v212.7c0,1.4,0.9,2.6,2.2,3.1l113.6,38.4c0,0,0,0,0,0c0.1,0,0.3,0.1,0.5,0.1c0,0,0.1,0,0.1,0&#10;&#9;&#9;&#9;c0.2,0,0.3,0,0.5,0h0h0h0h34c1.8,0,3.2-1.5,3.2-3.2V499c0-1.8-1.5-3.2-3.2-3.2H471.4c-1.8,0-3.2,1.5-3.2,3.2v309.6&#10;&#9;&#9;&#9;c0,1.8,1.5,3.2,3.2,3.2h34h0h0c0.1,0,0.2,0,0.3,0c0,0,0.1,0,0.1,0c0.1,0,0.1,0,0.2,0c0,0,0.1,0,0.1,0c0.1,0,0.1,0,0.2,0&#10;&#9;&#9;&#9;c0,0,0.1,0,0.1,0c0,0,0,0,0.1,0l109-38.4c1.3-0.5,2.2-1.7,2.2-3.1V557.5c0-1.4-0.9-2.6-2.2-3.1l-91.1-32.1H754L659,554.4&#10;&#9;&#9;&#9;C657.7,554.9,656.8,556.1,656.8,557.5z M770.5,596.5l-5.5-1.6v-25.2l5.5-1.6V596.5z M502.2,743.1h-5.5v-30.6h5.5V743.1z&#10;&#9;&#9;&#9; M502.2,597.6h-5.5V567h5.5V597.6z M611.2,559.8V768l-102.5,36.1v-55.3l9.7-2.8c1.4-0.4,2.3-1.7,2.3-3.1v-30.1&#10;&#9;&#9;&#9;c0-1.4-1-2.7-2.3-3.1l-9.7-2.8V603.3l9.7-2.8c1.4-0.4,2.3-1.7,2.3-3.1v-30.1c0-1.4-1-2.7-2.3-3.1l-9.7-2.8v-37.6L611.2,559.8z&#10;&#9;&#9;&#9; M508.7,742v-28.4l5.5,1.6v25.2L508.7,742z M508.7,596.5v-28.4l5.5,1.6v25.2L508.7,596.5z M505.4,515.9&#10;&#9;&#9;&#9;C505.4,515.9,505.4,515.9,505.4,515.9c-0.1,0-0.1,0-0.1,0c-0.1,0-0.2,0-0.3,0c0,0-0.1,0-0.1,0c-0.1,0-0.2,0-0.3,0.1&#10;&#9;&#9;&#9;c0,0-0.1,0-0.1,0c-0.1,0-0.2,0.1-0.3,0.1c0,0,0,0-0.1,0c-0.2,0.1-0.4,0.2-0.6,0.3c0,0,0,0,0,0c0,0,0,0-0.1,0&#10;&#9;&#9;&#9;c-0.1,0.1-0.1,0.1-0.2,0.2c0,0-0.1,0.1-0.1,0.1c-0.1,0.1-0.1,0.1-0.2,0.2c0,0-0.1,0.1-0.1,0.1c-0.1,0.1-0.1,0.2-0.2,0.3&#10;&#9;&#9;&#9;c0,0,0,0,0,0c-0.1,0.1-0.1,0.2-0.2,0.3c0,0,0,0,0,0.1c0,0.1-0.1,0.2-0.1,0.3c0,0,0,0.1,0,0.1c0,0.1-0.1,0.2-0.1,0.3&#10;&#9;&#9;&#9;c0,0,0,0.1,0,0.1c0,0.1,0,0.2,0,0.3c0,0,0,0.1,0,0.1c0,0.1,0,0.2,0,0.4v41.4h-8.8c-1.8,0-3.2,1.5-3.2,3.2v37.1&#10;&#9;&#9;&#9;c0,1.8,1.5,3.2,3.2,3.2h8.8V706h-8.8c-1.8,0-3.2,1.5-3.2,3.2v37.1c0,1.8,1.5,3.2,3.2,3.2h8.8v55.9h-27.6V502.3h329.9v303.2h-27.6&#10;&#9;&#9;&#9;v-55.9h8.8c1.8,0,3.2-1.5,3.2-3.2v-37.1c0-1.8-1.5-3.2-3.2-3.2h-8.8V604.1h8.8c1.8,0,3.2-1.5,3.2-3.2v-37.1c0-1.8-1.5-3.2-3.2-3.2&#10;&#9;&#9;&#9;h-8.8v-41.4c0-0.1,0-0.2,0-0.4c0,0,0-0.1,0-0.1c0-0.1,0-0.2,0-0.3c0,0,0-0.1,0-0.1c0-0.1,0-0.2-0.1-0.2c0,0,0-0.1,0-0.1&#10;&#9;&#9;&#9;c0-0.1-0.1-0.2-0.1-0.2c0,0,0-0.1,0-0.1c-0.1-0.2-0.2-0.4-0.4-0.6c0,0,0-0.1-0.1-0.1c-0.1-0.1-0.1-0.1-0.2-0.2&#10;&#9;&#9;&#9;c0,0-0.1-0.1-0.1-0.1c-0.1-0.1-0.1-0.1-0.2-0.2c0,0,0,0-0.1,0c0,0,0,0,0,0c-0.1-0.1-0.2-0.1-0.3-0.2c0,0,0,0,0,0&#10;&#9;&#9;&#9;c-0.1-0.1-0.2-0.1-0.3-0.2c0,0,0,0-0.1,0c-0.1,0-0.2-0.1-0.3-0.1c0,0-0.1,0-0.1,0c-0.1,0-0.2,0-0.2-0.1c0,0-0.1,0-0.1,0&#10;&#9;&#9;&#9;c-0.1,0-0.2,0-0.2,0c0,0-0.1,0-0.1,0c0,0,0,0-0.1,0H505.4z M776.9,743.1v-30.6h5.5v30.6H776.9z M776.9,597.6V567h5.5v30.6H776.9z&#10;&#9;&#9;&#9; M663.3,559.8l107.1-36.2v37.7l-9.7,2.8c-1.4,0.4-2.3,1.7-2.3,3.1v30.1c0,1.4,1,2.7,2.3,3.1l9.7,2.8v103.5l-9.7,2.8&#10;&#9;&#9;&#9;c-1.4,0.4-2.3,1.7-2.3,3.1v30.1c0,1.4,1,2.7,2.3,3.1l9.7,2.8v55.4l-107.1-36.2V559.8z M770.5,713.6V742l-5.5-1.6v-25.2&#10;&#9;&#9;&#9;L770.5,713.6z" transform="matrix(0.2334403544664383, 0, 0, 0.18987342715263367, -87.24439239501953, -63.15590286254883)"/><path fill="#FFFFFF" d="M518.4,745.9l-9.7,2.8v55.3L611.2,768V559.8l-102.5-36.1v37.6l9.7,2.8c1.4,0.4,2.3,1.7,2.3,3.1v30.1&#10;&#9;&#9;&#9;c0,1.4-1,2.7-2.3,3.1l-9.7,2.8v103.5l9.7,2.8c1.4,0.4,2.3,1.7,2.3,3.1v30.1C520.7,744.3,519.8,745.5,518.4,745.9z M589.7,642.7&#10;&#9;&#9;&#9;c0-4.7,3.8-8.5,8.5-8.5c4.7,0,8.5,3.8,8.5,8.5V677c0,4.7-3.8,8.5-8.5,8.5c-4.7,0-8.5-3.8-8.5-8.5V642.7z" transform="matrix(0.2334403544664383, 0, 0, 0.18987342715263367, -87.24439239501953, -63.15590286254883)"/><path fill="#FFFFFF" d="M760.8,564.1l9.7-2.8v-37.7l-107.1,36.2v208.1l107.1,36.2v-55.4l-9.7-2.8c-1.4-0.4-2.3-1.7-2.3-3.1v-30.1&#10;&#9;&#9;&#9;c0-1.4,1-2.7,2.3-3.1l9.7-2.8V603.3l-9.7-2.8c-1.4-0.4-2.3-1.7-2.3-3.1v-30.1C758.4,565.8,759.4,564.5,760.8,564.1z M683.8,677&#10;&#9;&#9;&#9;c0,4.7-3.8,8.5-8.5,8.5c-4.7,0-8.5-3.8-8.5-8.5v-34.3c0-4.7,3.8-8.5,8.5-8.5c4.7,0,8.5,3.8,8.5,8.5V677z" transform="matrix(0.2334403544664383, 0, 0, 0.18987342715263367, -87.24439239501953, -63.15590286254883)"/><path d="M 496.600006 567 H 502.100006 V 597.6 H 496.600006 V 567 Z" fill="#FFFFFF" transform="matrix(0.2334403544664383, 0, 0, 0.18987342715263367, -87.24439239501953, -63.15590286254883)"/><path d="M 514.2000122070312 594.9000244140625 L 514.2000122070312 569.7000122070312 L 508.70001220703125 568.0999755859375 L 508.70001220703125 596.5 Z" fill="#FFFFFF" transform="matrix(0.2334403544664383, 0, 0, 0.18987342715263367, -87.24439239501953, -63.15590286254883)"/><path d="M 496.600006 712.5 H 502.100006 V 743.1 H 496.600006 V 712.5 Z" fill="#FFFFFF" transform="matrix(0.2334403544664383, 0, 0, 0.18987342715263367, -87.24439239501953, -63.15590286254883)"/><path d="M 514.2000122070312 740.4000244140625 L 514.2000122070312 715.2000122070312 L 508.70001220703125 713.5999755859375 L 508.70001220703125 742 Z" fill="#FFFFFF" transform="matrix(0.2334403544664383, 0, 0, 0.18987342715263367, -87.24439239501953, -63.15590286254883)"/><path d="M 776.900024 567 H 782.400024 V 597.6 H 776.900024 V 567 Z" fill="#FFFFFF" transform="matrix(0.2334403544664383, 0, 0, 0.18987342715263367, -87.24439239501953, -63.15590286254883)"/><path d="M 770.5 596.5 L 770.5 568.0999755859375 L 764.9000244140625 569.7000122070312 L 764.9000244140625 594.9000244140625 Z" fill="#FFFFFF" transform="matrix(0.2334403544664383, 0, 0, 0.18987342715263367, -87.24439239501953, -63.15590286254883)"/><path d="M 776.900024 712.5 H 782.400024 V 743.1 H 776.900024 V 712.5 Z" fill="#FFFFFF" transform="matrix(0.2334403544664383, 0, 0, 0.18987342715263367, -87.24439239501953, -63.15590286254883)"/><path d="M 770.5 742 L 770.5 713.5999755859375 L 764.9000244140625 715.2000122070312 L 764.9000244140625 740.4000244140625 Z" fill="#FFFFFF" transform="matrix(0.2334403544664383, 0, 0, 0.18987342715263367, -87.24439239501953, -63.15590286254883)"/><path fill="#FFFFFF" d="M596.2,642.7V677c0,1.1,0.9,2,2,2h0c1.1,0,2-0.9,2-2v-34.3c0-1.1-0.9-2-2-2&#10;&#9;&#9;&#9;C597.1,640.6,596.2,641.6,596.2,642.7z" transform="matrix(0.2334403544664383, 0, 0, 0.18987342715263367, -87.24439239501953, -63.15590286254883)"/><path fill="#424342" d="M589.7,642.7V677c0,4.7,3.8,8.5,8.5,8.5c4.7,0,8.5-3.8,8.5-8.5v-34.3c0-4.7-3.8-8.5-8.5-8.5&#10;&#9;&#9;&#9;C593.6,634.2,589.7,638,589.7,642.7z M600.3,642.7V677c0,1.1-0.9,2-2,2h0c-1.1,0-2-0.9-2-2v-34.3c0-1.1,0.9-2,2-2&#10;&#9;&#9;&#9;C599.4,640.6,600.3,641.6,600.3,642.7z" transform="matrix(0.2334403544664383, 0, 0, 0.18987342715263367, -87.24439239501953, -63.15590286254883)"/><path fill="#FFFFFF" d="M673.2,642.7V677c0,1.1,0.9,2,2,2h0c1.1,0,2-0.9,2-2v-34.3c0-1.1-0.9-2-2-2&#10;&#9;&#9;&#9;C674.2,640.6,673.2,641.6,673.2,642.7z" transform="matrix(0.2334403544664383, 0, 0, 0.18987342715263367, -87.24439239501953, -63.15590286254883)"/><path fill="#424342" d="M666.8,642.7V677c0,4.7,3.8,8.5,8.5,8.5c4.7,0,8.5-3.8,8.5-8.5v-34.3c0-4.7-3.8-8.5-8.5-8.5&#10;&#9;&#9;&#9;C670.6,634.2,666.8,638,666.8,642.7z M677.3,642.7V677c0,1.1-0.9,2-2,2h0c-1.1,0-2-0.9-2-2v-34.3c0-1.1,0.9-2,2-2&#10;&#9;&#9;&#9;C676.4,640.6,677.3,641.6,677.3,642.7z" transform="matrix(0.2334403544664383, 0, 0, 0.18987342715263367, -87.24439239501953, -63.15590286254883)"/>
</svg>