<?xml version="1.0" encoding="utf-8"?>
<svg id="master-artboard" viewBox="0 0 120 120" version="1.1" xmlns="http://www.w3.org/2000/svg" x="0px" y="0px" width="120px" height="120px" style="enable-background:new 0 0 1400 980;"><rect id="ee-background" x="0" y="0" width="120" height="120" style="fill: white; fill-opacity: 0; pointer-events: none;"/>


















<g transform="matrix(0.5131925344467163, 0, 0, 0.44313138723373413, -294.2127990722656, -214.90817260742188)">
	<path class="st0" d="M672.2,681.8c2.7-1.2,4.4-4,4.4-7v-28.1c0-11-6.6-20.8-15.9-25.1c6.7-3.9,11.3-11.1,11.3-19.5&#10;&#9;&#9;c0-12.4-10.1-22.4-22.4-22.4c-12.4,0-22.4,10.1-22.4,22.4c0,8.3,4.5,15.5,11.2,19.4c-2.8,1.3-5.3,3-7.6,5.1&#10;&#9;&#9;c-5.3,5.1-8.3,12.1-8.3,19.5v28.7c0,3,1.7,5.7,4.4,7c0.4,0.2,0.7,0.3,1.1,0.3H671C671.4,682.1,671.8,682,672.2,681.8z M632.6,602.1&#10;&#9;&#9;c0-9.4,7.6-17,17-17c9.4,0,17,7.6,17,17c0,9.4-7.6,17-17,17C640.2,619.1,632.6,611.5,632.6,602.1z M670.3,676.6h-41.5&#10;&#9;&#9;c-0.5-0.4-0.9-1.1-0.9-1.8v-28.7c0-5.9,2.3-11.4,6.6-15.5c4.3-4.1,9.9-6.2,15.8-6c11.5,0.4,20.8,10.3,20.8,22.2v28.1&#10;&#9;&#9;C671.2,675.5,670.8,676.2,670.3,676.6z" style="fill: rgb(96, 96, 96);"/>
	<path class="st0" d="M743.1,621.6c6.7-3.9,11.3-11.1,11.3-19.5c0-12.4-10.1-22.4-22.4-22.4c-12.4,0-22.4,10.1-22.4,22.4&#10;&#9;&#9;c0,8.3,4.5,15.5,11.3,19.4c-2.8,1.3-5.3,3-7.6,5.1c-5.3,5.1-8.3,12.1-8.3,19.5v28.7c0,3,1.7,5.7,4.4,7c0.4,0.2,0.7,0.3,1.1,0.3&#10;&#9;&#9;h42.9c0.4,0,0.8-0.1,1.1-0.3c2.7-1.2,4.4-4,4.4-7v-28.1C759,635.7,752.4,626,743.1,621.6z M715,602.1c0-9.4,7.6-17,17-17&#10;&#9;&#9;c9.4,0,17,7.6,17,17c0,9.4-7.6,17-17,17C722.6,619.1,715,611.5,715,602.1z M753.5,674.9c0,0.7-0.3,1.3-0.9,1.8h-41.5&#10;&#9;&#9;c-0.5-0.4-0.9-1.1-0.9-1.8v-28.7c0-5.9,2.3-11.4,6.6-15.5c4.3-4.1,9.9-6.2,15.8-6c11.5,0.4,20.8,10.3,20.8,22.2V674.9z" style="fill: rgb(96, 96, 96);"/>
	<path class="st0" d="M687,578.5c0.5,0.6,1.3,1,2.1,1c0.1,0,0.1,0,0.2,0c0.9-0.1,1.7-0.6,2.2-1.3l9.8-16.5c0.8-1.3,0.4-3-0.9-3.7&#10;&#9;&#9;c-1.3-0.8-3-0.4-3.7,0.9l-7.8,13.1l-4.2-5.2c-0.9-1.2-2.7-1.4-3.8-0.4c-1.2,0.9-1.4,2.7-0.4,3.8L687,578.5z" style="fill: rgb(96, 96, 96);"/>
	<path class="st0" d="M682.3,588.7l6,12.7c0.5,0.9,1.4,1.6,2.5,1.6s2-0.6,2.5-1.6l6-12.7c8-3.4,13.4-11.4,13.4-20.1&#10;&#9;&#9;c0-12.1-9.8-21.9-21.9-21.9c-12.1,0-21.9,9.8-21.9,21.9C668.9,577.3,674.2,585.3,682.3,588.7z M690.8,552.1&#10;&#9;&#9;c9.1,0,16.4,7.4,16.4,16.4c0,6.9-4.4,13.1-10.8,15.4c-0.7,0.2-1.2,0.7-1.5,1.4l-4,8.5l-4-8.5c-0.3-0.6-0.9-1.1-1.5-1.4&#10;&#9;&#9;c-6.5-2.3-10.8-8.5-10.8-15.4C674.3,559.5,681.7,552.1,690.8,552.1z" style="fill: rgb(96, 96, 96);"/>
</g>


</svg>